<mxfile host="app.diagrams.net" agent="Mozilla/5.0 (Windows NT 10.0; Win64; x64) AppleWebKit/537.36 (KHTML, like Gecko) Chrome/131.0.0.0 Safari/537.36" version="26.0.1">
  <diagram name="Page-1" id="03018318-947c-dd8e-b7a3-06fadd420f32">
    <mxGraphModel dx="3354" dy="1258" grid="1" gridSize="10" guides="1" tooltips="1" connect="1" arrows="1" fold="1" page="1" pageScale="1" pageWidth="1100" pageHeight="850" background="none" math="0" shadow="0">
      <root>
        <mxCell id="0" />
        <mxCell id="1" parent="0" />
        <mxCell id="677b7b8949515195-1" value="" style="whiteSpace=wrap;html=1;rounded=0;shadow=0;labelBackgroundColor=none;strokeColor=#000000;strokeWidth=1;fillColor=none;fontFamily=Verdana;fontSize=12;fontColor=#000000;align=center;comic=1;" parent="1" vertex="1">
          <mxGeometry x="20" y="60" width="1060" height="560" as="geometry" />
        </mxCell>
        <mxCell id="gBdz1FRmPUKY2ZFgMoxz-1" value="&lt;font style=&quot;font-size: 18px;&quot;&gt;fourthwallacademy.com/Manage/Courses/10&lt;/font&gt;" style="html=1;strokeWidth=1;shadow=0;dashed=0;shape=mxgraph.ios7ui.url;fillColor=#e0e0e0;strokeColor=#c0c0c0;buttonText=;strokeColor2=#222222;fontColor=#222222;fontSize=8;spacingTop=2;align=center;whiteSpace=wrap;" parent="1" vertex="1">
          <mxGeometry x="25" y="10" width="1050" height="40" as="geometry" />
        </mxCell>
        <mxCell id="CBU3p2uWpCq7XRt16fgI-1" value="World History" style="text;strokeColor=none;fillColor=none;html=1;fontSize=24;fontStyle=1;verticalAlign=middle;align=center;" parent="1" vertex="1">
          <mxGeometry x="90" y="161.75" width="210" height="40" as="geometry" />
        </mxCell>
        <mxCell id="CBU3p2uWpCq7XRt16fgI-3" value="&lt;font style=&quot;font-size: 16px;&quot;&gt;Course Description:&amp;nbsp;&lt;/font&gt;" style="text;html=1;align=right;verticalAlign=middle;whiteSpace=wrap;rounded=0;" parent="1" vertex="1">
          <mxGeometry x="110" y="231.75" width="150" height="30" as="geometry" />
        </mxCell>
        <mxCell id="CBU3p2uWpCq7XRt16fgI-6" value="&lt;font style=&quot;font-size: 16px;&quot;&gt;Credits:&amp;nbsp;&lt;/font&gt;" style="text;html=1;align=right;verticalAlign=middle;whiteSpace=wrap;rounded=0;" parent="1" vertex="1">
          <mxGeometry x="110" y="341.75" width="70" height="30" as="geometry" />
        </mxCell>
        <mxCell id="CBU3p2uWpCq7XRt16fgI-8" value="&lt;font style=&quot;font-size: 16px;&quot;&gt;Subject:&amp;nbsp;&lt;/font&gt;" style="text;html=1;align=right;verticalAlign=middle;whiteSpace=wrap;rounded=0;" parent="1" vertex="1">
          <mxGeometry x="110" y="411.75" width="70" height="30" as="geometry" />
        </mxCell>
        <mxCell id="CBU3p2uWpCq7XRt16fgI-11" value="&lt;font style=&quot;font-size: 16px;&quot;&gt;Edit&lt;/font&gt;" style="rounded=1;fillColor=#0057D8;strokeColor=none;html=1;whiteSpace=wrap;fontColor=#ffffff;align=center;verticalAlign=middle;fontStyle=0;fontSize=12;sketch=0;" parent="1" vertex="1">
          <mxGeometry x="110" y="491.75" width="86" height="33" as="geometry" />
        </mxCell>
        <mxCell id="CBU3p2uWpCq7XRt16fgI-12" value="Go Back" style="html=1;shadow=0;dashed=0;shape=mxgraph.bootstrap.rrect;rSize=5;strokeColor=none;strokeWidth=1;fillColor=none;fontColor=#0085FC;whiteSpace=wrap;align=center;verticalAlign=middle;spacingLeft=0;fontStyle=0;fontSize=16;spacing=5;" parent="1" vertex="1">
          <mxGeometry x="210" y="488.25" width="100" height="40" as="geometry" />
        </mxCell>
        <mxCell id="CBU3p2uWpCq7XRt16fgI-13" value="&lt;span style=&quot;font-size: 16px;&quot;&gt;Explore the history of human civilization from ancient times to the present.&lt;/span&gt;" style="text;html=1;align=right;verticalAlign=middle;whiteSpace=wrap;rounded=0;" parent="1" vertex="1">
          <mxGeometry x="110" y="261.75" width="530" height="30" as="geometry" />
        </mxCell>
        <mxCell id="CBU3p2uWpCq7XRt16fgI-14" value="&lt;font style=&quot;font-size: 16px;&quot;&gt;3.0&lt;/font&gt;" style="text;html=1;align=right;verticalAlign=middle;whiteSpace=wrap;rounded=0;" parent="1" vertex="1">
          <mxGeometry x="180" y="341.75" width="30" height="30" as="geometry" />
        </mxCell>
        <mxCell id="CBU3p2uWpCq7XRt16fgI-15" value="&lt;font style=&quot;font-size: 16px;&quot;&gt;Social Studies&lt;/font&gt;" style="text;html=1;align=right;verticalAlign=middle;whiteSpace=wrap;rounded=0;" parent="1" vertex="1">
          <mxGeometry x="180" y="411.75" width="110" height="30" as="geometry" />
        </mxCell>
        <mxCell id="CBU3p2uWpCq7XRt16fgI-16" value="Course Details" style="text;strokeColor=none;fillColor=none;html=1;fontSize=24;fontStyle=1;verticalAlign=middle;align=center;" parent="1" vertex="1">
          <mxGeometry x="445" y="100" width="210" height="40" as="geometry" />
        </mxCell>
        <mxCell id="CBU3p2uWpCq7XRt16fgI-17" value="&lt;font style=&quot;font-size: 16px;&quot;&gt;Delete&lt;/font&gt;" style="rounded=1;fillColor=#f8cecc;strokeColor=#b85450;html=1;whiteSpace=wrap;align=center;verticalAlign=middle;fontStyle=0;fontSize=12;sketch=0;" parent="1" vertex="1">
          <mxGeometry x="917" y="491.75" width="86" height="33" as="geometry" />
        </mxCell>
      </root>
    </mxGraphModel>
  </diagram>
</mxfile>
